Libre Franklin Italics-Bold.ufo
<glyph name="quotesingle" format="2">
	<advance width="253"/>
	<unicode hex="0027"/>
	<outline>
		<contour>
			<point x="206" y="434" type="curve"/>
			<point x="285" y="716" type="line"/>
			<point x="288" y="729"/>
			<point x="278" y="742"/>
			<point x="266" y="742" type="curve"/>
			<point x="121" y="742" type="line" smooth="yes"/>
			<point x="110" y="742"/>
			<point x="105" y="741"/>
			<point x="105" y="726" type="curve"/>
			<point x="105" y="442" type="line" smooth="yes"/>
			<point x="103" y="425"/>
			<point x="111" y="411"/>
			<point x="131" y="411" type="curve"/>
			<point x="173" y="411" type="line" smooth="yes"/>
			<point x="197" y="411"/>
			<point x="200" y="413"/>
		</contour>
	</outline>
</glyph>
<glyph name="comma" format="2">
	<advance width="279"/>
	<unicode hex="002C"/>
	<outline>
		<contour>
			<point x="-12" y="-165" type="curve"/>
			<point x="-12" y="-165" type="line"/>
			<point x="17" y="-165" type="line" smooth="yes"/>
			<point x="32" y="-165"/>
			<point x="44" y="-160"/>
			<point x="64" y="-137" type="curve"/>
			<point x="200" y="16" type="line" smooth="yes"/>
			<point x="204" y="20"/>
			<point x="209" y="28"/>
			<point x="210" y="38" type="curve"/>
			<point x="231" y="179" type="line" smooth="yes"/>
			<point x="233" y="192"/>
			<point x="228" y="198"/>
			<point x="216" y="198" type="curve"/>
			<point x="41" y="198" type="line" smooth="yes"/>
			<point x="30" y="198"/>
			<point x="21" y="185"/>
			<point x="19" y="170" type="curve"/>
			<point x="-3" y="21" type="line" smooth="yes"/>
			<point x="-6" y="4"/>
			<point x="-2" y="0"/>
			<point x="18" y="0" type="curve"/>
			<point x="43" y="0" type="line" smooth="yes"/>
			<point x="59" y="0"/>
			<point x="67" y="-11"/>
			<point x="51" y="-37" type="curve"/>
			<point x="-16" y="-145" type="line" smooth="yes"/>
			<point x="-22" y="-157"/>
			<point x="-21" y="-165"/>
		</contour>
	</outline>
</glyph>
<glyph name="zero" format="2">
	<advance width="722"/>
	<unicode hex="0030"/>
	<outline>
		<contour>
			<point x="423" y="753" type="curve"/>
			<point x="423" y="753" type="line"/>
			<point x="235" y="753"/>
			<point x="78" y="596"/>
			<point x="47" y="380" type="curve"/>
			<point x="44" y="356"/>
			<point x="42" y="332"/>
			<point x="42" y="310" type="curve"/>
			<point x="42" y="122"/>
			<point x="154" y="-8"/>
			<point x="332" y="-8" type="curve"/>
			<point x="522" y="-8"/>
			<point x="674" y="143"/>
			<point x="704" y="358" type="curve"/>
			<point x="708" y="383"/>
			<point x="709" y="407"/>
			<point x="709" y="430" type="curve"/>
			<point x="709" y="619"/>
			<point x="597" y="753"/>
		</contour>
		<contour>
			<point x="337" y="148" type="curve"/>
			<point x="337" y="148" type="line"/>
			<point x="287" y="148"/>
			<point x="265" y="176"/>
			<point x="265" y="251" type="curve"/>
			<point x="265" y="279"/>
			<point x="268" y="314"/>
			<point x="274" y="357" type="curve"/>
			<point x="298" y="528"/>
			<point x="340" y="599"/>
			<point x="416" y="599" type="curve"/>
			<point x="465" y="599"/>
			<point x="487" y="569"/>
			<point x="487" y="492" type="curve"/>
			<point x="487" y="462"/>
			<point x="483" y="425"/>
			<point x="477" y="379" type="curve"/>
			<point x="454" y="212"/>
			<point x="415" y="148"/>
		</contour>
	</outline>
</glyph>
<glyph name="equal" format="2">
	<advance width="600"/>
	<unicode hex="003D"/>
	<outline>
		<contour>
			<point x="584" y="421" type="curve"/>
			<point x="597" y="514" type="line"/>
			<point x="599" y="526"/>
			<point x="590" y="540"/>
			<point x="579" y="540" type="curve"/>
			<point x="94" y="540" type="line" smooth="yes"/>
			<point x="82" y="540"/>
			<point x="78" y="538"/>
			<point x="76" y="523" type="curve"/>
			<point x="63" y="430" type="line" smooth="yes"/>
			<point x="61" y="413"/>
			<point x="69" y="399"/>
			<point x="89" y="399" type="curve"/>
			<point x="552" y="399" type="line" smooth="yes"/>
			<point x="575" y="399"/>
			<point x="581" y="401"/>
		</contour>
		<contour>
			<point x="550" y="180" type="curve"/>
			<point x="563" y="273" type="line"/>
			<point x="565" y="285"/>
			<point x="556" y="299"/>
			<point x="545" y="299" type="curve"/>
			<point x="60" y="299" type="line" smooth="yes"/>
			<point x="48" y="299"/>
			<point x="44" y="297"/>
			<point x="42" y="282" type="curve"/>
			<point x="29" y="189" type="line" smooth="yes"/>
			<point x="27" y="172"/>
			<point x="35" y="158"/>
			<point x="55" y="158" type="curve"/>
			<point x="518" y="158" type="line" smooth="yes"/>
			<point x="541" y="158"/>
			<point x="547" y="160"/>
		</contour>
	</outline>
</glyph>
<glyph name="greater" format="2">
	<advance width="599"/>
	<unicode hex="003E"/>
	<outline>
		<contour>
			<point x="48" y="216" type="curve"/>
			<point x="48" y="216" type="line"/>
			<point x="35" y="120" type="line" smooth="yes"/>
			<point x="31" y="94"/>
			<point x="50" y="79"/>
			<point x="72" y="87" type="curve"/>
			<point x="539" y="257" type="line" smooth="yes"/>
			<point x="556" y="263"/>
			<point x="565" y="269"/>
			<point x="567" y="287" type="curve"/>
			<point x="583" y="398" type="line" smooth="yes"/>
			<point x="586" y="418"/>
			<point x="572" y="432"/>
			<point x="556" y="438" type="curve"/>
			<point x="136" y="609" type="line" smooth="yes"/>
			<point x="117" y="617"/>
			<point x="104" y="611"/>
			<point x="101" y="592" type="curve"/>
			<point x="87" y="496" type="line" smooth="yes"/>
			<point x="84" y="474"/>
			<point x="100" y="457"/>
			<point x="129" y="445" type="curve"/>
			<point x="365" y="348" type="line"/>
			<point x="95" y="258" type="line" smooth="yes"/>
			<point x="61" y="246"/>
			<point x="51" y="240"/>
		</contour>
	</outline>
</glyph>
<glyph name="A" format="2">
	<advance width="799"/>
	<unicode hex="0041"/>
	<anchor x="710" y="9" name="ogonek"/>
	<anchor x="363" y="0" name="bottom"/>
	<anchor x="462" y="742" name="top"/>
	<outline>
		<contour>
			<point x="-4" y="0" type="curve"/>
			<point x="-4" y="0" type="line"/>
			<point x="162" y="0" type="line" smooth="yes"/>
			<point x="176" y="0"/>
			<point x="180" y="2"/>
			<point x="184" y="10" type="curve"/>
			<point x="244" y="131" type="line" smooth="yes"/>
			<point x="249" y="140"/>
			<point x="253" y="144"/>
			<point x="263" y="144" type="curve"/>
			<point x="473" y="144" type="line" smooth="yes"/>
			<point x="482" y="144"/>
			<point x="485" y="142"/>
			<point x="486" y="135" type="curve"/>
			<point x="509" y="22" type="line" smooth="yes"/>
			<point x="512" y="9"/>
			<point x="518" y="0"/>
			<point x="528" y="0" type="curve"/>
			<point x="724" y="0" type="line" smooth="yes"/>
			<point x="739" y="0"/>
			<point x="742" y="15"/>
			<point x="739" y="29" type="curve"/>
			<point x="594" y="710" type="line" smooth="yes"/>
			<point x="591" y="726"/>
			<point x="586" y="742"/>
			<point x="569" y="742" type="curve"/>
			<point x="372" y="742" type="line" smooth="yes"/>
			<point x="354" y="742"/>
			<point x="342" y="740"/>
			<point x="334" y="724" type="curve"/>
			<point x="-5" y="42" type="line" smooth="yes"/>
			<point x="-20" y="12"/>
			<point x="-19" y="0"/>
		</contour>
		<contour>
			<point x="446" y="314" type="curve"/>
			<point x="332" y="314" type="line"/>
			<point x="320" y="314"/>
			<point x="317" y="317"/>
			<point x="323" y="330" type="curve"/>
			<point x="406" y="502" type="line" smooth="yes"/>
			<point x="412" y="514"/>
			<point x="420" y="514"/>
			<point x="422" y="501" type="curve"/>
			<point x="458" y="334" type="line" smooth="yes"/>
			<point x="461" y="321"/>
			<point x="457" y="314"/>
		</contour>
	</outline>
</glyph>
<glyph name="D" format="2">
	<advance width="771"/>
	<unicode hex="0044"/>
	<anchor x="405" y="371" name="center"/>
	<anchor x="457" y="742" name="top"/>
	<outline>
		<contour>
			<point x="48" y="0" type="curve"/>
			<point x="48" y="0" type="line"/>
			<point x="311" y="0" type="line" smooth="yes"/>
			<point x="580" y="0"/>
			<point x="759" y="172"/>
			<point x="759" y="429" type="curve"/>
			<point x="759" y="609"/>
			<point x="632" y="742"/>
			<point x="391" y="742" type="curve"/>
			<point x="141" y="742" type="line" smooth="yes"/>
			<point x="122" y="742"/>
			<point x="118" y="739"/>
			<point x="116" y="723" type="curve"/>
			<point x="20" y="36" type="line" smooth="yes"/>
			<point x="17" y="14"/>
			<point x="28" y="0"/>
		</contour>
		<contour>
			<point x="338" y="157" type="curve"/>
			<point x="281" y="157" type="line"/>
			<point x="270" y="157"/>
			<point x="266" y="164"/>
			<point x="268" y="176" type="curve"/>
			<point x="321" y="565" type="line" smooth="yes"/>
			<point x="323" y="578"/>
			<point x="329" y="585"/>
			<point x="342" y="585" type="curve"/>
			<point x="401" y="585" type="line" smooth="yes"/>
			<point x="476" y="585"/>
			<point x="523" y="536"/>
			<point x="523" y="442" type="curve"/>
			<point x="523" y="286"/>
			<point x="466" y="157"/>
		</contour>
	</outline>
</glyph>
<glyph name="U" format="2">
	<advance width="728"/>
	<unicode hex="0055"/>
	<anchor x="440" y="10" name="ogonek"/>
	<anchor x="448" y="742" name="top"/>
	<anchor x="627" y="739" name="topright"/>
	<anchor x="327" y="0" name="bottom"/>
	<outline>
		<contour>
			<point x="687" y="287" type="curve"/>
			<point x="687" y="287" type="line"/>
			<point x="747" y="715" type="line" smooth="yes"/>
			<point x="749" y="728"/>
			<point x="741" y="742"/>
			<point x="729" y="742" type="curve"/>
			<point x="579" y="742" type="line" smooth="yes"/>
			<point x="567" y="742"/>
			<point x="564" y="740"/>
			<point x="562" y="725" type="curve"/>
			<point x="502" y="298" type="line" smooth="yes"/>
			<point x="486" y="187"/>
			<point x="423" y="149"/>
			<point x="357" y="149" type="curve"/>
			<point x="303" y="149"/>
			<point x="270" y="172"/>
			<point x="270" y="240" type="curve"/>
			<point x="270" y="253"/>
			<point x="272" y="267"/>
			<point x="274" y="283" type="curve"/>
			<point x="334" y="715" type="line" smooth="yes"/>
			<point x="336" y="728"/>
			<point x="328" y="742"/>
			<point x="316" y="742" type="curve"/>
			<point x="126" y="742" type="line" smooth="yes"/>
			<point x="115" y="742"/>
			<point x="111" y="740"/>
			<point x="109" y="725" type="curve"/>
			<point x="52" y="319" type="line" smooth="yes"/>
			<point x="48" y="289"/>
			<point x="45" y="260"/>
			<point x="45" y="234" type="curve"/>
			<point x="45" y="78"/>
			<point x="125" y="-10"/>
			<point x="333" y="-10" type="curve"/>
			<point x="520" y="-10"/>
			<point x="655" y="56"/>
		</contour>
	</outline>
</glyph>
<glyph name="V" format="2">
	<advance width="751"/>
	<unicode hex="0056"/>
	<outline>
		<contour>
			<point x="780" y="742" type="curve"/>
			<point x="780" y="742" type="line"/>
			<point x="621" y="742" type="line" smooth="yes"/>
			<point x="609" y="742"/>
			<point x="601" y="739"/>
			<point x="596" y="726" type="curve"/>
			<point x="406" y="283" type="line" smooth="yes"/>
			<point x="401" y="272"/>
			<point x="398" y="272"/>
			<point x="396" y="284" type="curve"/>
			<point x="324" y="716" type="line" smooth="yes"/>
			<point x="321" y="734"/>
			<point x="317" y="742"/>
			<point x="305" y="742" type="curve"/>
			<point x="108" y="742" type="line" smooth="yes"/>
			<point x="92" y="742"/>
			<point x="87" y="733"/>
			<point x="91" y="718" type="curve"/>
			<point x="229" y="20" type="line" smooth="yes"/>
			<point x="232" y="4"/>
			<point x="242" y="0"/>
			<point x="262" y="0" type="curve"/>
			<point x="424" y="0" type="line" smooth="yes"/>
			<point x="444" y="0"/>
			<point x="453" y="3"/>
			<point x="461" y="20" type="curve"/>
			<point x="794" y="717" type="line" smooth="yes"/>
			<point x="801" y="732"/>
			<point x="796" y="742"/>
		</contour>
	</outline>
</glyph>
<glyph name="k" format="2">
	<advance width="631"/>
	<unicode hex="006B"/>
	<anchor x="265" y="0" name="bottom"/>
	<outline>
		<contour>
			<point x="579" y="23" type="curve"/>
			<point x="579" y="23" type="line"/>
			<point x="461" y="332" type="line" smooth="yes"/>
			<point x="456" y="350"/>
			<point x="463" y="357"/>
			<point x="473" y="368" type="curve"/>
			<point x="623" y="497" type="line" smooth="yes"/>
			<point x="637" y="511"/>
			<point x="628" y="530"/>
			<point x="605" y="530" type="curve"/>
			<point x="468" y="530" type="line" smooth="yes"/>
			<point x="458" y="530"/>
			<point x="448" y="527"/>
			<point x="436" y="517" type="curve"/>
			<point x="262" y="348" type="line" smooth="yes"/>
			<point x="254" y="339"/>
			<point x="252" y="334"/>
			<point x="253" y="340" type="curve"/>
			<point x="305" y="715" type="line" smooth="yes"/>
			<point x="307" y="728"/>
			<point x="306" y="742"/>
			<point x="294" y="742" type="curve"/>
			<point x="124" y="742" type="line" smooth="yes"/>
			<point x="113" y="742"/>
			<point x="109" y="740"/>
			<point x="107" y="725" type="curve"/>
			<point x="9" y="31" type="line" smooth="yes"/>
			<point x="7" y="14"/>
			<point x="15" y="0"/>
			<point x="36" y="0" type="curve"/>
			<point x="177" y="0" type="line" smooth="yes"/>
			<point x="200" y="0"/>
			<point x="205" y="2"/>
			<point x="208" y="23" type="curve"/>
			<point x="222" y="124" type="line" smooth="yes"/>
			<point x="224" y="140"/>
			<point x="232" y="149"/>
			<point x="238" y="154" type="curve"/>
			<point x="292" y="203" type="line" smooth="yes"/>
			<point x="303" y="213"/>
			<point x="310" y="212"/>
			<point x="314" y="199" type="curve"/>
			<point x="362" y="31" type="line" smooth="yes"/>
			<point x="367" y="15"/>
			<point x="375" y="0"/>
			<point x="392" y="0" type="curve"/>
			<point x="563" y="0" type="line" smooth="yes"/>
			<point x="581" y="0"/>
			<point x="583" y="12"/>
		</contour>
	</outline>
</glyph>
<glyph name="u" format="2">
	<advance width="601"/>
	<unicode hex="0075"/>
	<anchor x="495" y="10" name="ogonek"/>
	<anchor x="336" y="530" name="top"/>
	<anchor x="447" y="530" name="topright"/>
	<anchor x="263" y="0" name="bottom"/>
	<outline>
		<contour>
			<point x="154" y="-10" type="curve"/>
			<point x="154" y="-10" type="line"/>
			<point x="217" y="-10"/>
			<point x="272" y="11"/>
			<point x="321" y="59" type="curve"/>
			<point x="331" y="68"/>
			<point x="338" y="68"/>
			<point x="337" y="60" type="curve"/>
			<point x="330" y="16" type="line" smooth="yes"/>
			<point x="328" y="3"/>
			<point x="337" y="0"/>
			<point x="348" y="0" type="curve"/>
			<point x="506" y="0" type="line" smooth="yes"/>
			<point x="518" y="0"/>
			<point x="521" y="2"/>
			<point x="523" y="16" type="curve"/>
			<point x="595" y="498" type="line" smooth="yes"/>
			<point x="597" y="516"/>
			<point x="588" y="530"/>
			<point x="569" y="530" type="curve"/>
			<point x="426" y="530" type="line" smooth="yes"/>
			<point x="403" y="530"/>
			<point x="397" y="527"/>
			<point x="394" y="507" type="curve"/>
			<point x="345" y="175" type="line"/>
			<point x="324" y="152"/>
			<point x="292" y="130"/>
			<point x="258" y="130" type="curve"/>
			<point x="236" y="130"/>
			<point x="222" y="139"/>
			<point x="222" y="163" type="curve"/>
			<point x="222" y="166"/>
			<point x="222" y="171"/>
			<point x="223" y="176" type="curve"/>
			<point x="269" y="498" type="line" smooth="yes"/>
			<point x="272" y="517"/>
			<point x="263" y="530"/>
			<point x="246" y="530" type="curve"/>
			<point x="100" y="530" type="line" smooth="yes"/>
			<point x="78" y="530"/>
			<point x="73" y="526"/>
			<point x="70" y="506" type="curve"/>
			<point x="22" y="163" type="line" smooth="yes"/>
			<point x="21" y="153"/>
			<point x="20" y="141"/>
			<point x="20" y="130" type="curve"/>
			<point x="20" y="43"/>
			<point x="74" y="-10"/>
		</contour>
	</outline>
</glyph>
<glyph name="cent" format="2">
	<advance width="558"/>
	<unicode hex="00A2"/>
	<outline>
		<contour>
			<point x="335" y="23" type="curve"/>
			<point x="335" y="23" type="line"/>
			<point x="355" y="164" type="line" smooth="yes"/>
			<point x="357" y="181"/>
			<point x="348" y="196"/>
			<point x="328" y="196" type="curve"/>
			<point x="261" y="196" type="line" smooth="yes"/>
			<point x="239" y="196"/>
			<point x="234" y="193"/>
			<point x="231" y="173" type="curve"/>
			<point x="211" y="32" type="line" smooth="yes"/>
			<point x="209" y="15"/>
			<point x="218" y="0"/>
			<point x="238" y="0" type="curve"/>
			<point x="305" y="0" type="line" smooth="yes"/>
			<point x="327" y="0"/>
			<point x="332" y="3"/>
		</contour>
		<contour>
			<point x="412" y="569" type="curve"/>
			<point x="412" y="569" type="line"/>
			<point x="432" y="710" type="line" smooth="yes"/>
			<point x="434" y="727"/>
			<point x="425" y="742"/>
			<point x="405" y="742" type="curve"/>
			<point x="338" y="742" type="line" smooth="yes"/>
			<point x="316" y="742"/>
			<point x="311" y="739"/>
			<point x="308" y="719" type="curve"/>
			<point x="288" y="578" type="line" smooth="yes"/>
			<point x="286" y="561"/>
			<point x="294" y="546"/>
			<point x="314" y="546" type="curve"/>
			<point x="381" y="546" type="line" smooth="yes"/>
			<point x="403" y="546"/>
			<point x="409" y="549"/>
		</contour>
		<component base="c" xOffset="-22" yOffset="111"/>
	</outline>
</glyph>
<glyph name="multiply" format="2">
	<advance width="600"/>
	<unicode hex="00D7"/>
	<outline>
		<contour>
			<point x="461" y="134" type="curve"/>
			<point x="537" y="200" type="line"/>
			<point x="546" y="208"/>
			<point x="542" y="219"/>
			<point x="536" y="226" type="curve"/>
			<point x="203" y="612" type="line" smooth="yes"/>
			<point x="197" y="620"/>
			<point x="187" y="628"/>
			<point x="174" y="617" type="curve"/>
			<point x="99" y="551" type="line" smooth="yes"/>
			<point x="87" y="539"/>
			<point x="89" y="529"/>
			<point x="101" y="515" type="curve"/>
			<point x="420" y="145" type="line" smooth="yes"/>
			<point x="433" y="129"/>
			<point x="445" y="120"/>
		</contour>
		<contour>
			<point x="60" y="202" type="curve"/>
			<point x="117" y="136" type="line"/>
			<point x="124" y="128"/>
			<point x="132" y="119"/>
			<point x="142" y="127" type="curve"/>
			<point x="583" y="512" type="line" smooth="yes"/>
			<point x="590" y="521"/>
			<point x="585" y="531"/>
			<point x="577" y="542" type="curve"/>
			<point x="519" y="608" type="line" smooth="yes"/>
			<point x="510" y="620"/>
			<point x="501" y="629"/>
			<point x="485" y="615" type="curve"/>
			<point x="62" y="245" type="line" smooth="yes"/>
			<point x="45" y="229"/>
			<point x="47" y="216"/>
		</contour>
	</outline>
</glyph>
<glyph name="idotless" format="2">
	<advance width="282"/>
	<unicode hex="0131"/>
	<anchor x="173" y="9" name="ogonek"/>
	<anchor x="178" y="530" name="top"/>
	<outline>
		<contour>
			<point x="207" y="23" type="curve"/>
			<point x="275" y="504" type="line"/>
			<point x="276" y="516"/>
			<point x="267" y="530"/>
			<point x="256" y="530" type="curve"/>
			<point x="93" y="530" type="line" smooth="yes"/>
			<point x="81" y="530"/>
			<point x="78" y="528"/>
			<point x="76" y="513" type="curve"/>
			<point x="8" y="31" type="line" smooth="yes"/>
			<point x="6" y="14"/>
			<point x="14" y="0"/>
			<point x="34" y="0" type="curve"/>
			<point x="175" y="0" type="line" smooth="yes"/>
			<point x="198" y="0"/>
			<point x="204" y="2"/>
		</contour>
	</outline>
</glyph>
<glyph name="apostrophemod" format="2">
	<advance width="194"/>
	<unicode hex="02BC"/>
	<outline>
		<contour>
			<point x="71" y="445" type="curve"/>
			<point x="71" y="445" type="line"/>
			<point x="110" y="445" type="line" smooth="yes"/>
			<point x="129" y="445"/>
			<point x="141" y="454"/>
			<point x="145" y="466" type="curve"/>
			<point x="200" y="586" type="line" smooth="yes"/>
			<point x="201" y="588"/>
			<point x="206" y="593"/>
			<point x="207" y="597" type="curve"/>
			<point x="226" y="735" type="line" smooth="yes"/>
			<point x="227" y="743"/>
			<point x="226" y="742"/>
			<point x="218" y="742" type="curve"/>
			<point x="119" y="742" type="line" smooth="yes"/>
			<point x="111" y="742"/>
			<point x="99" y="731"/>
			<point x="98" y="720" type="curve"/>
			<point x="81" y="602" type="line" smooth="yes"/>
			<point x="80" y="590"/>
			<point x="81" y="592"/>
			<point x="94" y="591" type="curve"/>
			<point x="105" y="588" type="line" smooth="yes"/>
			<point x="116" y="586"/>
			<point x="120" y="576"/>
			<point x="115" y="563" type="curve"/>
			<point x="68" y="456" type="line" smooth="yes"/>
			<point x="65" y="449"/>
			<point x="62" y="445"/>
		</contour>
	</outline>
</glyph>
<glyph name="tildecomb" format="2">
	<advance width="0"/>
	<unicode hex="0303"/>
	<anchor x="-160" y="748" name="top"/>
	<anchor x="-194" y="530" name="_top"/>
	<outline>
		<contour>
			<point x="10" y="628" type="curve"/>
			<point x="10" y="628" type="line"/>
			<point x="28" y="635"/>
			<point x="23" y="649"/>
			<point x="22" y="661" type="curve"/>
			<point x="17" y="725" type="line" smooth="yes"/>
			<point x="16" y="740"/>
			<point x="5" y="750"/>
			<point x="-9" y="747" type="curve"/>
			<point x="-32" y="742"/>
			<point x="-57" y="712"/>
			<point x="-93" y="712" type="curve"/>
			<point x="-136" y="712"/>
			<point x="-187" y="746"/>
			<point x="-254" y="746" type="curve"/>
			<point x="-297" y="746"/>
			<point x="-325" y="731"/>
			<point x="-353" y="714" type="curve"/>
			<point x="-372" y="702"/>
			<point x="-362" y="689"/>
			<point x="-360" y="679" type="curve"/>
			<point x="-350" y="625" type="line" smooth="yes"/>
			<point x="-347" y="609"/>
			<point x="-339" y="598"/>
			<point x="-326" y="605" type="curve"/>
			<point x="-293" y="623"/>
			<point x="-280" y="637"/>
			<point x="-248" y="637" type="curve"/>
			<point x="-195" y="637"/>
			<point x="-154" y="606"/>
			<point x="-91" y="606" type="curve"/>
			<point x="-54" y="606"/>
			<point x="-15" y="618"/>
		</contour>
	</outline>
</glyph>
<glyph name="hungarumlautcomb" format="2">
	<advance width="0"/>
	<unicode hex="030B"/>
	<anchor x="-196" y="530" name="_top"/>
	<outline>
		<contour>
			<point x="-182" y="679" type="curve"/>
			<point x="-225" y="740" type="line"/>
			<point x="-230" y="749"/>
			<point x="-242" y="754"/>
			<point x="-251" y="747" type="curve"/>
			<point x="-406" y="630" type="line" smooth="yes"/>
			<point x="-413" y="624"/>
			<point x="-407" y="610"/>
			<point x="-399" y="601" type="curve"/>
			<point x="-371" y="566" type="line" smooth="yes"/>
			<point x="-363" y="556"/>
			<point x="-357" y="554"/>
			<point x="-340" y="563" type="curve"/>
			<point x="-185" y="643" type="line" smooth="yes"/>
			<point x="-166" y="653"/>
			<point x="-174" y="666"/>
		</contour>
		<contour>
			<point x="37" y="679" type="curve"/>
			<point x="-6" y="740" type="line"/>
			<point x="-11" y="749"/>
			<point x="-23" y="754"/>
			<point x="-32" y="747" type="curve"/>
			<point x="-187" y="630" type="line" smooth="yes"/>
			<point x="-194" y="624"/>
			<point x="-188" y="610"/>
			<point x="-180" y="601" type="curve"/>
			<point x="-152" y="566" type="line" smooth="yes"/>
			<point x="-144" y="556"/>
			<point x="-138" y="554"/>
			<point x="-121" y="563" type="curve"/>
			<point x="34" y="643" type="line" smooth="yes"/>
			<point x="53" y="653"/>
			<point x="45" y="666"/>
		</contour>
	</outline>
</glyph>
<glyph name="commaaccentcomb" format="2">
	<advance width="0"/>
	<unicode hex="0326"/>
	<anchor x="-111" y="0" name="_bottom"/>
	<outline>
		<contour>
			<point x="-198" y="-246" type="curve"/>
			<point x="-198" y="-246" type="line"/>
			<point x="-170" y="-246" type="line" smooth="yes"/>
			<point x="-156" y="-246"/>
			<point x="-150" y="-237"/>
			<point x="-140" y="-227" type="curve"/>
			<point x="-80" y="-168" type="line" smooth="yes"/>
			<point x="-74" y="-162"/>
			<point x="-69" y="-152"/>
			<point x="-68" y="-145" type="curve"/>
			<point x="-56" y="-63" type="line" smooth="yes"/>
			<point x="-55" y="-53"/>
			<point x="-61" y="-49"/>
			<point x="-72" y="-49" type="curve"/>
			<point x="-168" y="-49" type="line" smooth="yes"/>
			<point x="-178" y="-49"/>
			<point x="-184" y="-54"/>
			<point x="-186" y="-68" type="curve"/>
			<point x="-196" y="-132" type="line" smooth="yes"/>
			<point x="-199" y="-148"/>
			<point x="-196" y="-152"/>
			<point x="-185" y="-152" type="curve"/>
			<point x="-155" y="-152" type="line" smooth="yes"/>
			<point x="-144" y="-152"/>
			<point x="-142" y="-164"/>
			<point x="-154" y="-178" type="curve"/>
			<point x="-199" y="-230" type="line" smooth="yes"/>
			<point x="-206" y="-238"/>
			<point x="-205" y="-246"/>
		</contour>
	</outline>
</glyph>
<glyph name="cedillacomb" format="2">
	<advance width="0"/>
	<unicode hex="0327"/>
	<anchor x="-185" y="0" name="_bottom"/>
	<outline>
		<contour>
			<point x="-68" y="-148" type="curve"/>
			<point x="-68" y="-148" type="line"/>
			<point x="-62" y="-105"/>
			<point x="-87" y="-53"/>
			<point x="-169" y="-53" type="curve"/>
			<point x="-172" y="-53"/>
			<point x="-168" y="-55"/>
			<point x="-164" y="-49" type="curve"/>
			<point x="-139" y="5" type="line"/>
			<point x="-222" y="5" type="line"/>
			<point x="-273" y="-78" type="line" smooth="yes"/>
			<point x="-278" y="-89"/>
			<point x="-269" y="-95"/>
			<point x="-255" y="-95" type="curve"/>
			<point x="-190" y="-95"/>
			<point x="-173" y="-104"/>
			<point x="-176" y="-123" type="curve"/>
			<point x="-179" y="-145"/>
			<point x="-204" y="-161"/>
			<point x="-236" y="-161" type="curve"/>
			<point x="-259" y="-161"/>
			<point x="-286" y="-153"/>
			<point x="-310" y="-145" type="curve"/>
			<point x="-312" y="-141"/>
			<point x="-314" y="-132"/>
			<point x="-317" y="-138" type="curve"/>
			<point x="-340" y="-179" type="line" smooth="yes"/>
			<point x="-343" y="-186"/>
			<point x="-337" y="-193"/>
			<point x="-328" y="-194" type="curve"/>
			<point x="-298" y="-216"/>
			<point x="-252" y="-225"/>
			<point x="-204" y="-225" type="curve"/>
			<point x="-137" y="-225"/>
			<point x="-75" y="-197"/>
		</contour>
	</outline>
</glyph>
<glyph name="ogonekcomb" format="2">
	<advance width="0"/>
	<unicode hex="0328"/>
	<anchor x="-78" y="10" name="_ogonek"/>
	<outline>
		<contour>
			<point x="-298" y="-76" type="curve"/>
			<point x="-298" y="-76" type="line"/>
			<point x="-307" y="-141"/>
			<point x="-259" y="-174"/>
			<point x="-183" y="-174" type="curve"/>
			<point x="-139" y="-174"/>
			<point x="-102" y="-166"/>
			<point x="-80" y="-161" type="curve"/>
			<point x="-72" y="-159"/>
			<point x="-68" y="-149"/>
			<point x="-67" y="-141" type="curve"/>
			<point x="-60" y="-89" type="line" smooth="yes"/>
			<point x="-58" y="-76"/>
			<point x="-64" y="-69"/>
			<point x="-76" y="-74" type="curve"/>
			<point x="-95" y="-82"/>
			<point x="-113" y="-93"/>
			<point x="-139" y="-93" type="curve"/>
			<point x="-154" y="-93"/>
			<point x="-160" y="-85"/>
			<point x="-159" y="-70" type="curve"/>
			<point x="-157" y="-43"/>
			<point x="-131" y="-20"/>
			<point x="-53" y="4" type="curve"/>
			<point x="-196" y="8" type="line"/>
			<point x="-278" y="-20"/>
			<point x="-294" y="-47"/>
		</contour>
	</outline>
</glyph>
<glyph name="rupeeIndian" format="2">
	<advance width="684"/>
	<unicode hex="20B9"/>
	<outline>
		<contour>
			<point x="43" y="432" type="curve"/>
			<point x="43" y="432" type="line"/>
			<point x="30" y="333" type="line" smooth="yes"/>
			<point x="28" y="320"/>
			<point x="37" y="307"/>
			<point x="49" y="307" type="curve"/>
			<point x="225" y="307" type="line" smooth="yes"/>
			<point x="244" y="307"/>
			<point x="249" y="307"/>
			<point x="251" y="296" type="curve"/>
			<point x="308" y="26" type="line" smooth="yes"/>
			<point x="309" y="12"/>
			<point x="320" y="0"/>
			<point x="334" y="0" type="curve"/>
			<point x="528" y="0" type="line" smooth="yes"/>
			<point x="544" y="0"/>
			<point x="549" y="10"/>
			<point x="545" y="27" type="curve"/>
			<point x="459" y="319" type="line" smooth="yes"/>
			<point x="458" y="327"/>
			<point x="464" y="338"/>
			<point x="474" y="339" type="curve"/>
			<point x="552" y="371"/>
			<point x="612" y="438"/>
			<point x="624" y="524" type="curve"/>
			<point x="643" y="659"/>
			<point x="538" y="742"/>
			<point x="346" y="742" type="curve"/>
			<point x="102" y="742" type="line" smooth="yes"/>
			<point x="90" y="742"/>
			<point x="87" y="739"/>
			<point x="85" y="728" type="curve"/>
			<point x="77" y="670" type="line" smooth="yes"/>
			<point x="75" y="657"/>
			<point x="85" y="644"/>
			<point x="96" y="644" type="curve"/>
			<point x="305" y="644" type="line" smooth="yes"/>
			<point x="371" y="644"/>
			<point x="403" y="620"/>
			<point x="394" y="554" type="curve"/>
			<point x="384" y="484"/>
			<point x="346" y="446"/>
			<point x="275" y="446" type="curve"/>
			<point x="60" y="446" type="line" smooth="yes"/>
			<point x="47" y="446"/>
			<point x="45" y="444"/>
		</contour>
		<contour>
			<point x="729" y="673" type="curve"/>
			<point x="735" y="716" type="line"/>
			<point x="737" y="728"/>
			<point x="728" y="742"/>
			<point x="717" y="742" type="curve"/>
			<point x="102" y="742" type="line" smooth="yes"/>
			<point x="90" y="742"/>
			<point x="87" y="740"/>
			<point x="85" y="725" type="curve"/>
			<point x="79" y="682" type="line" smooth="yes"/>
			<point x="76" y="665"/>
			<point x="84" y="651"/>
			<point x="104" y="651" type="curve"/>
			<point x="697" y="651" type="line" smooth="yes"/>
			<point x="720" y="651"/>
			<point x="727" y="653"/>
		</contour>
		<contour>
			<point x="708" y="522" type="curve"/>
			<point x="714" y="565" type="line"/>
			<point x="716" y="577"/>
			<point x="707" y="591"/>
			<point x="696" y="591" type="curve"/>
			<point x="81" y="591" type="line" smooth="yes"/>
			<point x="69" y="591"/>
			<point x="66" y="589"/>
			<point x="63" y="574" type="curve"/>
			<point x="57" y="531" type="line" smooth="yes"/>
			<point x="55" y="514"/>
			<point x="63" y="500"/>
			<point x="83" y="500" type="curve"/>
			<point x="676" y="500" type="line" smooth="yes"/>
			<point x="699" y="500"/>
			<point x="705" y="502"/>
		</contour>
	</outline>
</glyph>
<glyph name="partialdiff" format="2">
	<advance width="600"/>
	<unicode hex="2202"/>
	<outline>
		<contour>
			<point x="159" y="572" type="curve"/>
			<point x="159" y="572" type="line"/>
			<point x="182" y="588"/>
			<point x="221" y="610"/>
			<point x="281" y="610" type="curve"/>
			<point x="412" y="610"/>
			<point x="439" y="509"/>
			<point x="433" y="461" type="curve"/>
			<point x="430" y="445"/>
			<point x="422" y="425"/>
			<point x="405" y="434" type="curve"/>
			<point x="384" y="461"/>
			<point x="354" y="488"/>
			<point x="283" y="488" type="curve"/>
			<point x="139" y="488"/>
			<point x="39" y="382"/>
			<point x="21" y="249" type="curve"/>
			<point x="0" y="103"/>
			<point x="81" y="-10"/>
			<point x="254" y="-10" type="curve"/>
			<point x="451" y="-10"/>
			<point x="563" y="136"/>
			<point x="593" y="352" type="curve"/>
			<point x="631" y="623"/>
			<point x="507" y="752"/>
			<point x="317" y="752" type="curve"/>
			<point x="216" y="752"/>
			<point x="140" y="716"/>
			<point x="110" y="702" type="curve"/>
			<point x="106" y="695"/>
			<point x="99" y="687"/>
			<point x="105" y="667" type="curve"/>
			<point x="131" y="588" type="line" smooth="yes"/>
			<point x="135" y="576"/>
			<point x="141" y="567"/>
		</contour>
		<contour>
			<point x="259" y="126" type="curve"/>
			<point x="258" y="126" type="line"/>
			<point x="216" y="126"/>
			<point x="192" y="153"/>
			<point x="202" y="219" type="curve"/>
			<point x="213" y="298"/>
			<point x="261" y="361"/>
			<point x="320" y="361" type="curve"/>
			<point x="355" y="361"/>
			<point x="378" y="338"/>
			<point x="391" y="317" type="curve"/>
			<point x="394" y="300"/>
			<point x="393" y="296"/>
			<point x="388" y="282" type="curve"/>
			<point x="368" y="192"/>
			<point x="320" y="126"/>
		</contour>
	</outline>
</glyph>
<glyph name="lessequal" format="2">
	<advance width="602"/>
	<unicode hex="2264"/>
	<outline>
		<contour>
			<point x="538" y="216" type="curve"/>
			<point x="552" y="312" type="line"/>
			<point x="555" y="336"/>
			<point x="540" y="350"/>
			<point x="510" y="362" type="curve"/>
			<point x="274" y="456" type="line"/>
			<point x="544" y="549" type="line" smooth="yes"/>
			<point x="577" y="561"/>
			<point x="588" y="570"/>
			<point x="591" y="592" type="curve"/>
			<point x="604" y="688" type="line" smooth="yes"/>
			<point x="607" y="707"/>
			<point x="589" y="729"/>
			<point x="568" y="721" type="curve"/>
			<point x="100" y="550" type="line" smooth="yes"/>
			<point x="82" y="544"/>
			<point x="74" y="538"/>
			<point x="72" y="518" type="curve"/>
			<point x="56" y="407" type="line" smooth="yes"/>
			<point x="53" y="389"/>
			<point x="67" y="375"/>
			<point x="83" y="369" type="curve"/>
			<point x="502" y="199" type="line" smooth="yes"/>
			<point x="522" y="191"/>
			<point x="534" y="190"/>
		</contour>
		<contour>
			<point x="524" y="30" type="curve"/>
			<point x="537" y="123" type="line"/>
			<point x="539" y="135"/>
			<point x="530" y="149"/>
			<point x="519" y="149" type="curve"/>
			<point x="34" y="149" type="line" smooth="yes"/>
			<point x="22" y="149"/>
			<point x="18" y="147"/>
			<point x="16" y="132" type="curve"/>
			<point x="3" y="39" type="line" smooth="yes"/>
			<point x="1" y="22"/>
			<point x="9" y="8"/>
			<point x="29" y="8" type="curve"/>
			<point x="492" y="8" type="line" smooth="yes"/>
			<point x="515" y="8"/>
			<point x="521" y="10"/>
		</contour>
	</outline>
</glyph>
